<mxfile host="app.diagrams.net" modified="2023-09-16T14:45:32.268Z" agent="Mozilla/5.0 (Macintosh; Intel Mac OS X 10_15_7) AppleWebKit/537.36 (KHTML, like Gecko) Chrome/116.0.0.0 Safari/537.36 Edg/116.0.1938.76" etag="lCJVTtwW37twwdPwg4t3" version="21.7.5" type="device">
  <diagram name="Page-1" id="vkGQn7WxQ3L01sFnEOGI">
    <mxGraphModel dx="2445" dy="1087" grid="1" gridSize="10" guides="1" tooltips="1" connect="1" arrows="1" fold="1" page="1" pageScale="1" pageWidth="850" pageHeight="1100" math="0" shadow="0">
      <root>
        <mxCell id="0" />
        <mxCell id="1" parent="0" />
        <mxCell id="5cvoMpTRVd37yO0GErrh-1" value="&lt;b&gt;AWS Cloud&lt;/b&gt;" style="points=[[0,0],[0.25,0],[0.5,0],[0.75,0],[1,0],[1,0.25],[1,0.5],[1,0.75],[1,1],[0.75,1],[0.5,1],[0.25,1],[0,1],[0,0.75],[0,0.5],[0,0.25]];outlineConnect=0;gradientColor=none;html=1;whiteSpace=wrap;fontSize=12;fontStyle=0;container=1;pointerEvents=0;collapsible=0;recursiveResize=0;shape=mxgraph.aws4.group;grIcon=mxgraph.aws4.group_aws_cloud_alt;strokeColor=#232F3E;fillColor=none;verticalAlign=top;align=left;spacingLeft=30;fontColor=#232F3E;dashed=0;" parent="1" vertex="1">
          <mxGeometry x="-40" y="150" width="1240" height="1210" as="geometry" />
        </mxCell>
        <mxCell id="5cvoMpTRVd37yO0GErrh-3" value="&lt;b&gt;VPC&lt;/b&gt;" style="points=[[0,0],[0.25,0],[0.5,0],[0.75,0],[1,0],[1,0.25],[1,0.5],[1,0.75],[1,1],[0.75,1],[0.5,1],[0.25,1],[0,1],[0,0.75],[0,0.5],[0,0.25]];outlineConnect=0;gradientColor=none;html=1;whiteSpace=wrap;fontSize=12;fontStyle=0;container=1;pointerEvents=0;collapsible=0;recursiveResize=0;shape=mxgraph.aws4.group;grIcon=mxgraph.aws4.group_vpc;strokeColor=#248814;fillColor=none;verticalAlign=top;align=left;spacingLeft=30;fontColor=#AAB7B8;dashed=0;" parent="5cvoMpTRVd37yO0GErrh-1" vertex="1">
          <mxGeometry x="80" y="90" width="1080" height="880" as="geometry" />
        </mxCell>
        <mxCell id="5cvoMpTRVd37yO0GErrh-11" value="&lt;b&gt;Region&lt;/b&gt;" style="points=[[0,0],[0.25,0],[0.5,0],[0.75,0],[1,0],[1,0.25],[1,0.5],[1,0.75],[1,1],[0.75,1],[0.5,1],[0.25,1],[0,1],[0,0.75],[0,0.5],[0,0.25]];outlineConnect=0;gradientColor=none;html=1;whiteSpace=wrap;fontSize=12;fontStyle=0;container=1;pointerEvents=0;collapsible=0;recursiveResize=0;shape=mxgraph.aws4.group;grIcon=mxgraph.aws4.group_region;strokeColor=#147EBA;fillColor=none;verticalAlign=top;align=left;spacingLeft=30;fontColor=#147EBA;dashed=1;" parent="5cvoMpTRVd37yO0GErrh-1" vertex="1">
          <mxGeometry x="40" y="50" width="1160" height="960" as="geometry" />
        </mxCell>
        <mxCell id="5cvoMpTRVd37yO0GErrh-5" value="&lt;b&gt;Availability Zone 1&lt;/b&gt;" style="fillColor=none;strokeColor=#147EBA;dashed=1;verticalAlign=top;fontStyle=0;fontColor=#147EBA;whiteSpace=wrap;html=1;" parent="5cvoMpTRVd37yO0GErrh-11" vertex="1">
          <mxGeometry x="120" y="80" width="400" height="800" as="geometry" />
        </mxCell>
        <mxCell id="5cvoMpTRVd37yO0GErrh-7" value="Public subnet" style="points=[[0,0],[0.25,0],[0.5,0],[0.75,0],[1,0],[1,0.25],[1,0.5],[1,0.75],[1,1],[0.75,1],[0.5,1],[0.25,1],[0,1],[0,0.75],[0,0.5],[0,0.25]];outlineConnect=0;gradientColor=none;html=1;whiteSpace=wrap;fontSize=12;fontStyle=0;container=1;pointerEvents=0;collapsible=0;recursiveResize=0;shape=mxgraph.aws4.group;grIcon=mxgraph.aws4.group_security_group;grStroke=0;strokeColor=#248814;fillColor=#E9F3E6;verticalAlign=top;align=left;spacingLeft=30;fontColor=#248814;dashed=0;" parent="5cvoMpTRVd37yO0GErrh-11" vertex="1">
          <mxGeometry x="180" y="120" width="300" height="280" as="geometry" />
        </mxCell>
        <mxCell id="5cvoMpTRVd37yO0GErrh-9" value="Private subnet" style="points=[[0,0],[0.25,0],[0.5,0],[0.75,0],[1,0],[1,0.25],[1,0.5],[1,0.75],[1,1],[0.75,1],[0.5,1],[0.25,1],[0,1],[0,0.75],[0,0.5],[0,0.25]];outlineConnect=0;gradientColor=none;html=1;whiteSpace=wrap;fontSize=12;fontStyle=0;container=1;pointerEvents=0;collapsible=0;recursiveResize=0;shape=mxgraph.aws4.group;grIcon=mxgraph.aws4.group_security_group;grStroke=0;strokeColor=#147EBA;fillColor=#E6F2F8;verticalAlign=top;align=left;spacingLeft=30;fontColor=#147EBA;dashed=0;" parent="5cvoMpTRVd37yO0GErrh-11" vertex="1">
          <mxGeometry x="180" y="560" width="300" height="280" as="geometry" />
        </mxCell>
        <mxCell id="5cvoMpTRVd37yO0GErrh-6" value="&lt;b&gt;Availability Zone 2&lt;/b&gt;" style="fillColor=none;strokeColor=#147EBA;dashed=1;verticalAlign=top;fontStyle=0;fontColor=#147EBA;whiteSpace=wrap;html=1;" parent="5cvoMpTRVd37yO0GErrh-11" vertex="1">
          <mxGeometry x="640" y="80" width="400" height="800" as="geometry" />
        </mxCell>
        <mxCell id="5cvoMpTRVd37yO0GErrh-8" value="Public subnet" style="points=[[0,0],[0.25,0],[0.5,0],[0.75,0],[1,0],[1,0.25],[1,0.5],[1,0.75],[1,1],[0.75,1],[0.5,1],[0.25,1],[0,1],[0,0.75],[0,0.5],[0,0.25]];outlineConnect=0;gradientColor=none;html=1;whiteSpace=wrap;fontSize=12;fontStyle=0;container=1;pointerEvents=0;collapsible=0;recursiveResize=0;shape=mxgraph.aws4.group;grIcon=mxgraph.aws4.group_security_group;grStroke=0;strokeColor=#248814;fillColor=#E9F3E6;verticalAlign=top;align=left;spacingLeft=30;fontColor=#248814;dashed=0;" parent="5cvoMpTRVd37yO0GErrh-11" vertex="1">
          <mxGeometry x="680" y="120" width="300" height="280" as="geometry" />
        </mxCell>
        <mxCell id="5cvoMpTRVd37yO0GErrh-28" value="" style="sketch=0;outlineConnect=0;fontColor=#232F3E;gradientColor=none;fillColor=#ED7100;strokeColor=none;dashed=0;verticalLabelPosition=bottom;verticalAlign=top;align=center;html=1;fontSize=12;fontStyle=0;aspect=fixed;pointerEvents=1;shape=mxgraph.aws4.instance2;" parent="5cvoMpTRVd37yO0GErrh-8" vertex="1">
          <mxGeometry x="30" y="155" width="48" height="48" as="geometry" />
        </mxCell>
        <mxCell id="5cvoMpTRVd37yO0GErrh-10" value="Private subnet" style="points=[[0,0],[0.25,0],[0.5,0],[0.75,0],[1,0],[1,0.25],[1,0.5],[1,0.75],[1,1],[0.75,1],[0.5,1],[0.25,1],[0,1],[0,0.75],[0,0.5],[0,0.25]];outlineConnect=0;gradientColor=none;html=1;whiteSpace=wrap;fontSize=12;fontStyle=0;container=1;pointerEvents=0;collapsible=0;recursiveResize=0;shape=mxgraph.aws4.group;grIcon=mxgraph.aws4.group_security_group;grStroke=0;strokeColor=#147EBA;fillColor=#E6F2F8;verticalAlign=top;align=left;spacingLeft=30;fontColor=#147EBA;dashed=0;" parent="5cvoMpTRVd37yO0GErrh-11" vertex="1">
          <mxGeometry x="680" y="560" width="300" height="280" as="geometry" />
        </mxCell>
        <mxCell id="5cvoMpTRVd37yO0GErrh-31" value="" style="sketch=0;points=[[0,0,0],[0.25,0,0],[0.5,0,0],[0.75,0,0],[1,0,0],[0,1,0],[0.25,1,0],[0.5,1,0],[0.75,1,0],[1,1,0],[0,0.25,0],[0,0.5,0],[0,0.75,0],[1,0.25,0],[1,0.5,0],[1,0.75,0]];outlineConnect=0;fontColor=#232F3E;fillColor=#ED7100;strokeColor=#ffffff;dashed=0;verticalLabelPosition=bottom;verticalAlign=top;align=center;html=1;fontSize=12;fontStyle=0;aspect=fixed;shape=mxgraph.aws4.resourceIcon;resIcon=mxgraph.aws4.ec2;" parent="5cvoMpTRVd37yO0GErrh-11" vertex="1">
          <mxGeometry x="347" y="630" width="78" height="78" as="geometry" />
        </mxCell>
        <mxCell id="5cvoMpTRVd37yO0GErrh-32" value="" style="sketch=0;points=[[0,0,0],[0.25,0,0],[0.5,0,0],[0.75,0,0],[1,0,0],[0,1,0],[0.25,1,0],[0.5,1,0],[0.75,1,0],[1,1,0],[0,0.25,0],[0,0.5,0],[0,0.75,0],[1,0.25,0],[1,0.5,0],[1,0.75,0]];outlineConnect=0;fontColor=#232F3E;fillColor=#ED7100;strokeColor=#ffffff;dashed=0;verticalLabelPosition=bottom;verticalAlign=top;align=center;html=1;fontSize=12;fontStyle=0;aspect=fixed;shape=mxgraph.aws4.resourceIcon;resIcon=mxgraph.aws4.ec2;" parent="5cvoMpTRVd37yO0GErrh-11" vertex="1">
          <mxGeometry x="740" y="630" width="78" height="78" as="geometry" />
        </mxCell>
        <mxCell id="5cvoMpTRVd37yO0GErrh-38" value="" style="edgeStyle=orthogonalEdgeStyle;html=1;endArrow=block;elbow=vertical;startArrow=block;startFill=1;endFill=1;strokeColor=#545B64;rounded=0;exitX=1;exitY=0.5;exitDx=0;exitDy=0;exitPerimeter=0;entryX=0;entryY=0.5;entryDx=0;entryDy=0;entryPerimeter=0;" parent="5cvoMpTRVd37yO0GErrh-11" source="5cvoMpTRVd37yO0GErrh-31" target="5cvoMpTRVd37yO0GErrh-32" edge="1">
          <mxGeometry width="100" relative="1" as="geometry">
            <mxPoint x="530" y="660" as="sourcePoint" />
            <mxPoint x="630" y="660" as="targetPoint" />
          </mxGeometry>
        </mxCell>
        <mxCell id="5cvoMpTRVd37yO0GErrh-12" value="&lt;b&gt;&lt;br&gt;&lt;br&gt;&lt;br&gt;&lt;br&gt;Auto &lt;br&gt;Scaling &lt;br&gt;group&lt;/b&gt;" style="points=[[0,0],[0.25,0],[0.5,0],[0.75,0],[1,0],[1,0.25],[1,0.5],[1,0.75],[1,1],[0.75,1],[0.5,1],[0.25,1],[0,1],[0,0.75],[0,0.5],[0,0.25]];outlineConnect=0;gradientColor=none;html=1;whiteSpace=wrap;fontSize=12;fontStyle=0;container=1;pointerEvents=0;collapsible=0;recursiveResize=0;shape=mxgraph.aws4.groupCenter;grIcon=mxgraph.aws4.group_auto_scaling_group;grStroke=1;strokeColor=#D86613;fillColor=none;verticalAlign=middle;align=left;fontColor=#D86613;dashed=1;spacingTop=25;direction=north;" parent="5cvoMpTRVd37yO0GErrh-11" vertex="1">
          <mxGeometry x="140" y="550" width="880" height="310" as="geometry" />
        </mxCell>
        <mxCell id="5cvoMpTRVd37yO0GErrh-13" value="&lt;b&gt;Security group&lt;/b&gt;" style="fillColor=none;strokeColor=#DD3522;verticalAlign=bottom;fontStyle=0;fontColor=#DD3522;whiteSpace=wrap;html=1;direction=north;align=center;" parent="5cvoMpTRVd37yO0GErrh-12" vertex="1">
          <mxGeometry x="105" y="50" width="680" height="150" as="geometry" />
        </mxCell>
        <mxCell id="5cvoMpTRVd37yO0GErrh-93" value="Elastic Load Balancing" style="text;html=1;align=center;verticalAlign=middle;resizable=0;points=[];autosize=1;strokeColor=none;fillColor=none;fontStyle=1" parent="5cvoMpTRVd37yO0GErrh-12" vertex="1">
          <mxGeometry x="365" width="150" height="30" as="geometry" />
        </mxCell>
        <mxCell id="5cvoMpTRVd37yO0GErrh-39" value="" style="endArrow=none;html=1;rounded=0;exitX=0.5;exitY=0;exitDx=0;exitDy=0;exitPerimeter=0;" parent="5cvoMpTRVd37yO0GErrh-11" source="5cvoMpTRVd37yO0GErrh-22" edge="1">
          <mxGeometry width="50" height="50" relative="1" as="geometry">
            <mxPoint x="520" y="860" as="sourcePoint" />
            <mxPoint x="580" y="670" as="targetPoint" />
          </mxGeometry>
        </mxCell>
        <mxCell id="5cvoMpTRVd37yO0GErrh-16" value="" style="sketch=0;outlineConnect=0;fontColor=#232F3E;gradientColor=none;fillColor=#8C4FFF;strokeColor=none;dashed=0;verticalLabelPosition=bottom;verticalAlign=top;align=center;html=1;fontSize=12;fontStyle=0;aspect=fixed;pointerEvents=1;shape=mxgraph.aws4.nat_gateway;" parent="5cvoMpTRVd37yO0GErrh-11" vertex="1">
          <mxGeometry x="220" y="260" width="78" height="78" as="geometry" />
        </mxCell>
        <mxCell id="5cvoMpTRVd37yO0GErrh-45" value="" style="edgeStyle=orthogonalEdgeStyle;html=1;endArrow=block;elbow=vertical;startArrow=none;endFill=1;strokeColor=#545B64;rounded=0;" parent="5cvoMpTRVd37yO0GErrh-11" source="5cvoMpTRVd37yO0GErrh-16" target="5cvoMpTRVd37yO0GErrh-67" edge="1">
          <mxGeometry width="100" relative="1" as="geometry">
            <mxPoint x="370" y="380" as="sourcePoint" />
            <mxPoint x="580" y="480" as="targetPoint" />
            <Array as="points" />
          </mxGeometry>
        </mxCell>
        <mxCell id="5cvoMpTRVd37yO0GErrh-46" value="" style="edgeStyle=orthogonalEdgeStyle;html=1;endArrow=block;elbow=vertical;startArrow=none;endFill=1;strokeColor=#545B64;rounded=0;" parent="5cvoMpTRVd37yO0GErrh-11" source="5cvoMpTRVd37yO0GErrh-17" target="PjRyhQslUev43oaEKnDN-6" edge="1">
          <mxGeometry width="100" relative="1" as="geometry">
            <mxPoint x="790" y="430" as="sourcePoint" />
            <mxPoint x="580" y="490" as="targetPoint" />
            <Array as="points">
              <mxPoint x="899" y="450" />
              <mxPoint x="899" y="450" />
            </Array>
          </mxGeometry>
        </mxCell>
        <mxCell id="5cvoMpTRVd37yO0GErrh-49" value="" style="edgeStyle=orthogonalEdgeStyle;html=1;endArrow=block;elbow=vertical;startArrow=none;endFill=1;strokeColor=#545B64;rounded=0;entryX=0.5;entryY=0;entryDx=0;entryDy=0;entryPerimeter=0;" parent="5cvoMpTRVd37yO0GErrh-11" source="5cvoMpTRVd37yO0GErrh-28" target="5cvoMpTRVd37yO0GErrh-32" edge="1">
          <mxGeometry width="100" relative="1" as="geometry">
            <mxPoint x="820" y="450" as="sourcePoint" />
            <mxPoint x="920" y="450" as="targetPoint" />
            <Array as="points">
              <mxPoint x="779" y="300" />
            </Array>
          </mxGeometry>
        </mxCell>
        <mxCell id="5cvoMpTRVd37yO0GErrh-57" value="EC2 Instance" style="text;html=1;align=center;verticalAlign=middle;resizable=0;points=[];autosize=1;strokeColor=none;fillColor=none;fontStyle=1" parent="5cvoMpTRVd37yO0GErrh-11" vertex="1">
          <mxGeometry x="336" y="600" width="100" height="30" as="geometry" />
        </mxCell>
        <mxCell id="5cvoMpTRVd37yO0GErrh-58" value="EC2 Instance" style="text;html=1;align=center;verticalAlign=middle;resizable=0;points=[];autosize=1;strokeColor=none;fillColor=none;fontStyle=1" parent="5cvoMpTRVd37yO0GErrh-11" vertex="1">
          <mxGeometry x="729" y="700" width="100" height="30" as="geometry" />
        </mxCell>
        <mxCell id="5cvoMpTRVd37yO0GErrh-66" value="" style="edgeStyle=orthogonalEdgeStyle;html=1;endArrow=none;elbow=vertical;startArrow=classic;startFill=1;endFill=0;strokeColor=#545B64;rounded=0;" parent="5cvoMpTRVd37yO0GErrh-11" source="PjRyhQslUev43oaEKnDN-3" target="5cvoMpTRVd37yO0GErrh-71" edge="1">
          <mxGeometry width="100" relative="1" as="geometry">
            <mxPoint x="779.0000000000005" y="205.30550967303998" as="sourcePoint" />
            <mxPoint x="580" y="160" as="targetPoint" />
            <Array as="points">
              <mxPoint x="900" y="190" />
              <mxPoint x="580" y="190" />
            </Array>
          </mxGeometry>
        </mxCell>
        <mxCell id="5cvoMpTRVd37yO0GErrh-65" value="" style="edgeStyle=orthogonalEdgeStyle;html=1;endArrow=none;elbow=vertical;startArrow=classic;startFill=1;endFill=0;strokeColor=#545B64;rounded=0;" parent="5cvoMpTRVd37yO0GErrh-11" source="PjRyhQslUev43oaEKnDN-1" target="5cvoMpTRVd37yO0GErrh-71" edge="1">
          <mxGeometry width="100" relative="1" as="geometry">
            <mxPoint x="386.0526315789475" y="210.30550967303998" as="sourcePoint" />
            <mxPoint x="580" y="170" as="targetPoint" />
            <Array as="points">
              <mxPoint x="260" y="190" />
              <mxPoint x="580" y="190" />
            </Array>
          </mxGeometry>
        </mxCell>
        <mxCell id="5cvoMpTRVd37yO0GErrh-80" value="Public Route Table" style="text;html=1;align=center;verticalAlign=middle;resizable=0;points=[];autosize=1;strokeColor=none;fillColor=none;fontStyle=1" parent="5cvoMpTRVd37yO0GErrh-11" vertex="1">
          <mxGeometry x="419.35" y="40" width="130" height="30" as="geometry" />
        </mxCell>
        <mxCell id="5cvoMpTRVd37yO0GErrh-71" value="" style="sketch=0;outlineConnect=0;fontColor=#232F3E;gradientColor=none;fillColor=#8C4FFF;strokeColor=none;dashed=0;verticalLabelPosition=bottom;verticalAlign=top;align=center;html=1;fontSize=12;fontStyle=0;aspect=fixed;pointerEvents=1;shape=mxgraph.aws4.route_table;" parent="5cvoMpTRVd37yO0GErrh-11" vertex="1">
          <mxGeometry x="544.08" y="20" width="71.84" height="70" as="geometry" />
        </mxCell>
        <mxCell id="5cvoMpTRVd37yO0GErrh-89" value="&lt;b&gt;&lt;br&gt;&lt;br&gt;&lt;br&gt;&lt;br&gt;Auto &lt;br&gt;Scaling &lt;br&gt;group&lt;/b&gt;" style="points=[[0,0],[0.25,0],[0.5,0],[0.75,0],[1,0],[1,0.25],[1,0.5],[1,0.75],[1,1],[0.75,1],[0.5,1],[0.25,1],[0,1],[0,0.75],[0,0.5],[0,0.25]];outlineConnect=0;gradientColor=none;html=1;whiteSpace=wrap;fontSize=12;fontStyle=0;container=1;pointerEvents=0;collapsible=0;recursiveResize=0;shape=mxgraph.aws4.groupCenter;grIcon=mxgraph.aws4.group_auto_scaling_group;grStroke=1;strokeColor=#D86613;fillColor=none;verticalAlign=middle;align=left;fontColor=#D86613;dashed=1;spacingTop=25;direction=north;" parent="5cvoMpTRVd37yO0GErrh-11" vertex="1">
          <mxGeometry x="140" y="100" width="880" height="320" as="geometry" />
        </mxCell>
        <mxCell id="5cvoMpTRVd37yO0GErrh-142" value="Security group" style="fillColor=none;strokeColor=#DD3522;verticalAlign=top;fontStyle=0;fontColor=#DD3522;whiteSpace=wrap;html=1;" parent="5cvoMpTRVd37yO0GErrh-89" vertex="1">
          <mxGeometry x="230" y="160" width="430" height="100" as="geometry" />
        </mxCell>
        <mxCell id="5cvoMpTRVd37yO0GErrh-50" value="NAT Gateway" style="text;html=1;align=center;verticalAlign=middle;resizable=0;points=[];autosize=1;strokeColor=none;fillColor=none;fontStyle=1" parent="5cvoMpTRVd37yO0GErrh-89" vertex="1">
          <mxGeometry x="70" y="235" width="100" height="30" as="geometry" />
        </mxCell>
        <mxCell id="5cvoMpTRVd37yO0GErrh-51" value="NAT Gateway" style="text;html=1;align=center;verticalAlign=middle;resizable=0;points=[];autosize=1;strokeColor=none;fillColor=none;fontStyle=1" parent="5cvoMpTRVd37yO0GErrh-89" vertex="1">
          <mxGeometry x="710" y="235" width="100" height="30" as="geometry" />
        </mxCell>
        <mxCell id="5cvoMpTRVd37yO0GErrh-140" value="" style="sketch=0;outlineConnect=0;fontColor=#232F3E;gradientColor=none;fillColor=#ED7100;strokeColor=none;dashed=0;verticalLabelPosition=bottom;verticalAlign=top;align=center;html=1;fontSize=12;fontStyle=0;aspect=fixed;pointerEvents=1;shape=mxgraph.aws4.instance2;" parent="5cvoMpTRVd37yO0GErrh-89" vertex="1">
          <mxGeometry x="261" y="175" width="48" height="48" as="geometry" />
        </mxCell>
        <mxCell id="5cvoMpTRVd37yO0GErrh-153" value="" style="sketch=0;outlineConnect=0;fontColor=#232F3E;gradientColor=none;fillColor=#ED7100;strokeColor=none;dashed=0;verticalLabelPosition=bottom;verticalAlign=top;align=center;html=1;fontSize=12;fontStyle=0;aspect=fixed;pointerEvents=1;shape=mxgraph.aws4.elastic_ip_address;" parent="5cvoMpTRVd37yO0GErrh-89" vertex="1">
          <mxGeometry x="570" y="115" width="48" height="20" as="geometry" />
        </mxCell>
        <mxCell id="5cvoMpTRVd37yO0GErrh-91" value="" style="edgeStyle=orthogonalEdgeStyle;html=1;endArrow=block;elbow=vertical;startArrow=none;endFill=1;strokeColor=#545B64;rounded=0;entryX=1;entryY=0.25;entryDx=0;entryDy=0;entryPerimeter=0;exitX=0;exitY=0.5;exitDx=0;exitDy=0;exitPerimeter=0;" parent="5cvoMpTRVd37yO0GErrh-11" source="5cvoMpTRVd37yO0GErrh-94" target="5cvoMpTRVd37yO0GErrh-31" edge="1">
          <mxGeometry width="100" relative="1" as="geometry">
            <mxPoint x="551" y="510" as="sourcePoint" />
            <mxPoint x="430" y="550" as="targetPoint" />
          </mxGeometry>
        </mxCell>
        <mxCell id="5cvoMpTRVd37yO0GErrh-92" value="" style="edgeStyle=orthogonalEdgeStyle;html=1;endArrow=block;elbow=vertical;startArrow=none;endFill=1;strokeColor=#545B64;rounded=0;entryX=0;entryY=0.25;entryDx=0;entryDy=0;entryPerimeter=0;exitX=1;exitY=0.5;exitDx=0;exitDy=0;exitPerimeter=0;" parent="5cvoMpTRVd37yO0GErrh-11" source="5cvoMpTRVd37yO0GErrh-94" target="5cvoMpTRVd37yO0GErrh-32" edge="1">
          <mxGeometry width="100" relative="1" as="geometry">
            <mxPoint x="609" y="509" as="sourcePoint" />
            <mxPoint x="435" y="660" as="targetPoint" />
          </mxGeometry>
        </mxCell>
        <mxCell id="5cvoMpTRVd37yO0GErrh-52" value="Bastion Host" style="text;html=1;align=center;verticalAlign=middle;resizable=0;points=[];autosize=1;strokeColor=none;fillColor=none;fontStyle=1" parent="5cvoMpTRVd37yO0GErrh-11" vertex="1">
          <mxGeometry x="680" y="320" width="100" height="30" as="geometry" />
        </mxCell>
        <mxCell id="5cvoMpTRVd37yO0GErrh-17" value="" style="sketch=0;outlineConnect=0;fontColor=#232F3E;gradientColor=none;fillColor=#8C4FFF;strokeColor=none;dashed=0;verticalLabelPosition=bottom;verticalAlign=top;align=center;html=1;fontSize=12;fontStyle=0;aspect=fixed;pointerEvents=1;shape=mxgraph.aws4.nat_gateway;" parent="5cvoMpTRVd37yO0GErrh-11" vertex="1">
          <mxGeometry x="860" y="260" width="78" height="78" as="geometry" />
        </mxCell>
        <mxCell id="5cvoMpTRVd37yO0GErrh-141" value="Bastion Host" style="text;html=1;align=center;verticalAlign=middle;resizable=0;points=[];autosize=1;strokeColor=none;fillColor=none;fontStyle=1" parent="5cvoMpTRVd37yO0GErrh-11" vertex="1">
          <mxGeometry x="375" y="320" width="100" height="30" as="geometry" />
        </mxCell>
        <mxCell id="5cvoMpTRVd37yO0GErrh-70" value="Private Route Table" style="text;html=1;align=center;verticalAlign=middle;resizable=0;points=[];autosize=1;strokeColor=none;fillColor=none;fontStyle=1" parent="5cvoMpTRVd37yO0GErrh-11" vertex="1">
          <mxGeometry x="100.00000000000011" y="465" width="130" height="30" as="geometry" />
        </mxCell>
        <mxCell id="5cvoMpTRVd37yO0GErrh-149" value="Elastic IP" style="text;html=1;align=center;verticalAlign=middle;resizable=0;points=[];autosize=1;strokeColor=none;fillColor=none;fontStyle=0" parent="5cvoMpTRVd37yO0GErrh-11" vertex="1">
          <mxGeometry x="336" y="210" width="70" height="30" as="geometry" />
        </mxCell>
        <mxCell id="5cvoMpTRVd37yO0GErrh-150" value="Elastic IP" style="text;html=1;align=center;verticalAlign=middle;resizable=0;points=[];autosize=1;strokeColor=none;fillColor=none;fontStyle=0" parent="5cvoMpTRVd37yO0GErrh-11" vertex="1">
          <mxGeometry x="759" y="210" width="70" height="30" as="geometry" />
        </mxCell>
        <mxCell id="5cvoMpTRVd37yO0GErrh-151" value="" style="edgeStyle=orthogonalEdgeStyle;html=1;endArrow=block;elbow=vertical;startArrow=none;endFill=1;strokeColor=#545B64;rounded=0;entryX=0.5;entryY=0;entryDx=0;entryDy=0;entryPerimeter=0;" parent="5cvoMpTRVd37yO0GErrh-11" source="5cvoMpTRVd37yO0GErrh-140" target="5cvoMpTRVd37yO0GErrh-31" edge="1">
          <mxGeometry width="100" relative="1" as="geometry">
            <mxPoint x="768" y="310" as="sourcePoint" />
            <mxPoint x="789" y="640" as="targetPoint" />
            <Array as="points">
              <mxPoint x="386" y="299" />
            </Array>
          </mxGeometry>
        </mxCell>
        <mxCell id="5cvoMpTRVd37yO0GErrh-155" style="edgeStyle=orthogonalEdgeStyle;rounded=0;orthogonalLoop=1;jettySize=auto;html=1;" parent="5cvoMpTRVd37yO0GErrh-11" source="5cvoMpTRVd37yO0GErrh-152" target="5cvoMpTRVd37yO0GErrh-140" edge="1">
          <mxGeometry relative="1" as="geometry" />
        </mxCell>
        <mxCell id="5cvoMpTRVd37yO0GErrh-152" value="" style="sketch=0;outlineConnect=0;fontColor=#232F3E;gradientColor=none;fillColor=#ED7100;strokeColor=none;dashed=0;verticalLabelPosition=bottom;verticalAlign=top;align=center;html=1;fontSize=12;fontStyle=0;aspect=fixed;pointerEvents=1;shape=mxgraph.aws4.elastic_ip_address;" parent="5cvoMpTRVd37yO0GErrh-11" vertex="1">
          <mxGeometry x="401" y="215" width="48" height="20" as="geometry" />
        </mxCell>
        <mxCell id="5cvoMpTRVd37yO0GErrh-160" style="edgeStyle=orthogonalEdgeStyle;rounded=0;orthogonalLoop=1;jettySize=auto;html=1;" parent="5cvoMpTRVd37yO0GErrh-11" source="5cvoMpTRVd37yO0GErrh-153" target="5cvoMpTRVd37yO0GErrh-28" edge="1">
          <mxGeometry relative="1" as="geometry" />
        </mxCell>
        <mxCell id="5cvoMpTRVd37yO0GErrh-94" value="" style="sketch=0;points=[[0,0,0],[0.25,0,0],[0.5,0,0],[0.75,0,0],[1,0,0],[0,1,0],[0.25,1,0],[0.5,1,0],[0.75,1,0],[1,1,0],[0,0.25,0],[0,0.5,0],[0,0.75,0],[1,0.25,0],[1,0.5,0],[1,0.75,0]];outlineConnect=0;fontColor=#232F3E;fillColor=#ED7100;strokeColor=#ffffff;dashed=0;verticalLabelPosition=bottom;verticalAlign=top;align=center;html=1;fontSize=12;fontStyle=0;aspect=fixed;shape=mxgraph.aws4.resourceIcon;resIcon=mxgraph.aws4.elastic_load_balancing;" parent="5cvoMpTRVd37yO0GErrh-11" vertex="1">
          <mxGeometry x="549.35" y="480" width="59" height="59" as="geometry" />
        </mxCell>
        <mxCell id="PjRyhQslUev43oaEKnDN-2" style="edgeStyle=orthogonalEdgeStyle;rounded=0;orthogonalLoop=1;jettySize=auto;html=1;" edge="1" parent="5cvoMpTRVd37yO0GErrh-11" source="PjRyhQslUev43oaEKnDN-1" target="5cvoMpTRVd37yO0GErrh-16">
          <mxGeometry relative="1" as="geometry">
            <Array as="points">
              <mxPoint x="259" y="250" />
              <mxPoint x="259" y="250" />
            </Array>
          </mxGeometry>
        </mxCell>
        <mxCell id="PjRyhQslUev43oaEKnDN-1" value="" style="sketch=0;outlineConnect=0;fontColor=#232F3E;gradientColor=none;fillColor=#ED7100;strokeColor=none;dashed=0;verticalLabelPosition=bottom;verticalAlign=top;align=center;html=1;fontSize=12;fontStyle=0;aspect=fixed;pointerEvents=1;shape=mxgraph.aws4.elastic_ip_address;" vertex="1" parent="5cvoMpTRVd37yO0GErrh-11">
          <mxGeometry x="230" y="215" width="48" height="20" as="geometry" />
        </mxCell>
        <mxCell id="PjRyhQslUev43oaEKnDN-5" value="" style="edgeStyle=orthogonalEdgeStyle;rounded=0;orthogonalLoop=1;jettySize=auto;html=1;" edge="1" parent="5cvoMpTRVd37yO0GErrh-11" source="PjRyhQslUev43oaEKnDN-3" target="5cvoMpTRVd37yO0GErrh-17">
          <mxGeometry relative="1" as="geometry">
            <Array as="points">
              <mxPoint x="899" y="240" />
              <mxPoint x="899" y="240" />
            </Array>
          </mxGeometry>
        </mxCell>
        <mxCell id="PjRyhQslUev43oaEKnDN-3" value="" style="sketch=0;outlineConnect=0;fontColor=#232F3E;gradientColor=none;fillColor=#ED7100;strokeColor=none;dashed=0;verticalLabelPosition=bottom;verticalAlign=top;align=center;html=1;fontSize=12;fontStyle=0;aspect=fixed;pointerEvents=1;shape=mxgraph.aws4.elastic_ip_address;" vertex="1" parent="5cvoMpTRVd37yO0GErrh-11">
          <mxGeometry x="870" y="210" width="48" height="20" as="geometry" />
        </mxCell>
        <mxCell id="PjRyhQslUev43oaEKnDN-7" value="" style="edgeStyle=orthogonalEdgeStyle;rounded=0;orthogonalLoop=1;jettySize=auto;html=1;" edge="1" parent="5cvoMpTRVd37yO0GErrh-11" source="5cvoMpTRVd37yO0GErrh-67" target="5cvoMpTRVd37yO0GErrh-9">
          <mxGeometry relative="1" as="geometry" />
        </mxCell>
        <mxCell id="5cvoMpTRVd37yO0GErrh-67" value="" style="sketch=0;outlineConnect=0;fontColor=#232F3E;gradientColor=none;fillColor=#8C4FFF;strokeColor=none;dashed=0;verticalLabelPosition=bottom;verticalAlign=top;align=center;html=1;fontSize=12;fontStyle=0;aspect=fixed;pointerEvents=1;shape=mxgraph.aws4.route_table;" parent="5cvoMpTRVd37yO0GErrh-11" vertex="1">
          <mxGeometry x="225.64999999999998" y="447.5" width="66.71" height="65" as="geometry" />
        </mxCell>
        <mxCell id="PjRyhQslUev43oaEKnDN-8" style="edgeStyle=orthogonalEdgeStyle;rounded=0;orthogonalLoop=1;jettySize=auto;html=1;" edge="1" parent="5cvoMpTRVd37yO0GErrh-11" source="PjRyhQslUev43oaEKnDN-6" target="5cvoMpTRVd37yO0GErrh-10">
          <mxGeometry relative="1" as="geometry" />
        </mxCell>
        <mxCell id="PjRyhQslUev43oaEKnDN-6" value="" style="sketch=0;outlineConnect=0;fontColor=#232F3E;gradientColor=none;fillColor=#8C4FFF;strokeColor=none;dashed=0;verticalLabelPosition=bottom;verticalAlign=top;align=center;html=1;fontSize=12;fontStyle=0;aspect=fixed;pointerEvents=1;shape=mxgraph.aws4.route_table;" vertex="1" parent="5cvoMpTRVd37yO0GErrh-11">
          <mxGeometry x="865.65" y="447.5" width="66.71" height="65" as="geometry" />
        </mxCell>
        <mxCell id="PjRyhQslUev43oaEKnDN-9" value="Private Route Table" style="text;html=1;align=center;verticalAlign=middle;resizable=0;points=[];autosize=1;strokeColor=none;fillColor=none;fontStyle=1" vertex="1" parent="5cvoMpTRVd37yO0GErrh-11">
          <mxGeometry x="932.3600000000001" y="465" width="130" height="30" as="geometry" />
        </mxCell>
        <mxCell id="5cvoMpTRVd37yO0GErrh-59" value="Internet Gateway" style="text;html=1;align=center;verticalAlign=middle;resizable=0;points=[];autosize=1;strokeColor=none;fillColor=none;fontStyle=1" parent="5cvoMpTRVd37yO0GErrh-1" vertex="1">
          <mxGeometry x="465" width="120" height="30" as="geometry" />
        </mxCell>
        <mxCell id="5cvoMpTRVd37yO0GErrh-35" value="Storage" style="fillColor=none;strokeColor=#5A6C86;dashed=1;verticalAlign=top;fontStyle=0;fontColor=#5A6C86;whiteSpace=wrap;html=1;" parent="5cvoMpTRVd37yO0GErrh-1" vertex="1">
          <mxGeometry x="560" y="1048" width="360" height="120" as="geometry" />
        </mxCell>
        <mxCell id="5cvoMpTRVd37yO0GErrh-63" value="S3" style="text;html=1;align=center;verticalAlign=middle;resizable=0;points=[];autosize=1;strokeColor=none;fillColor=none;fontStyle=1" parent="5cvoMpTRVd37yO0GErrh-1" vertex="1">
          <mxGeometry x="600" y="1138" width="40" height="30" as="geometry" />
        </mxCell>
        <mxCell id="5cvoMpTRVd37yO0GErrh-22" value="" style="sketch=0;points=[[0,0,0],[0.25,0,0],[0.5,0,0],[0.75,0,0],[1,0,0],[0,1,0],[0.25,1,0],[0.5,1,0],[0.75,1,0],[1,1,0],[0,0.25,0],[0,0.5,0],[0,0.75,0],[1,0.25,0],[1,0.5,0],[1,0.75,0]];outlineConnect=0;fontColor=#232F3E;fillColor=#7AA116;strokeColor=#ffffff;dashed=0;verticalLabelPosition=bottom;verticalAlign=top;align=center;html=1;fontSize=12;fontStyle=0;aspect=fixed;shape=mxgraph.aws4.resourceIcon;resIcon=mxgraph.aws4.s3;" parent="5cvoMpTRVd37yO0GErrh-1" vertex="1">
          <mxGeometry x="581" y="1060" width="78" height="78" as="geometry" />
        </mxCell>
        <mxCell id="5cvoMpTRVd37yO0GErrh-34" value="" style="outlineConnect=0;dashed=0;verticalLabelPosition=bottom;verticalAlign=top;align=center;html=1;shape=mxgraph.aws3.iam;fillColor=#759C3E;gradientColor=none;" parent="5cvoMpTRVd37yO0GErrh-1" vertex="1">
          <mxGeometry x="845" y="1057" width="42" height="81" as="geometry" />
        </mxCell>
        <mxCell id="5cvoMpTRVd37yO0GErrh-64" value="IAM" style="text;html=1;align=center;verticalAlign=middle;resizable=0;points=[];autosize=1;strokeColor=none;fillColor=none;fontStyle=1" parent="5cvoMpTRVd37yO0GErrh-1" vertex="1">
          <mxGeometry x="840" y="1138" width="50" height="30" as="geometry" />
        </mxCell>
        <mxCell id="5cvoMpTRVd37yO0GErrh-14" value="" style="sketch=0;outlineConnect=0;fontColor=#232F3E;gradientColor=none;fillColor=#232F3D;strokeColor=none;dashed=0;verticalLabelPosition=bottom;verticalAlign=top;align=center;html=1;fontSize=12;fontStyle=0;aspect=fixed;pointerEvents=1;shape=mxgraph.aws4.users;" parent="1" vertex="1">
          <mxGeometry x="120" width="78" height="78" as="geometry" />
        </mxCell>
        <mxCell id="5cvoMpTRVd37yO0GErrh-44" style="edgeStyle=orthogonalEdgeStyle;rounded=0;orthogonalLoop=1;jettySize=auto;html=1;endArrow=none;endFill=0;entryX=0.5;entryY=0;entryDx=0;entryDy=0;entryPerimeter=0;" parent="1" source="5cvoMpTRVd37yO0GErrh-18" edge="1">
          <mxGeometry relative="1" as="geometry">
            <mxPoint x="580" y="210" as="targetPoint" />
          </mxGeometry>
        </mxCell>
        <mxCell id="5cvoMpTRVd37yO0GErrh-18" value="" style="sketch=0;outlineConnect=0;fontColor=#232F3E;gradientColor=none;fillColor=#8C4FFF;strokeColor=none;dashed=0;verticalLabelPosition=bottom;verticalAlign=top;align=center;html=1;fontSize=12;fontStyle=0;aspect=fixed;pointerEvents=1;shape=mxgraph.aws4.internet_gateway;" parent="1" vertex="1">
          <mxGeometry x="541" y="110" width="78" height="78" as="geometry" />
        </mxCell>
        <mxCell id="5cvoMpTRVd37yO0GErrh-41" value="" style="edgeStyle=orthogonalEdgeStyle;html=1;endArrow=block;elbow=vertical;startArrow=none;endFill=1;strokeColor=#545B64;rounded=0;" parent="1" source="5cvoMpTRVd37yO0GErrh-14" target="5cvoMpTRVd37yO0GErrh-18" edge="1">
          <mxGeometry width="100" relative="1" as="geometry">
            <mxPoint x="230" y="50" as="sourcePoint" />
            <mxPoint x="330" y="50" as="targetPoint" />
          </mxGeometry>
        </mxCell>
        <mxCell id="5cvoMpTRVd37yO0GErrh-42" value="Port: 80" style="text;html=1;align=center;verticalAlign=middle;resizable=0;points=[];autosize=1;strokeColor=none;fillColor=none;fontStyle=1" parent="1" vertex="1">
          <mxGeometry x="198" y="38" width="70" height="30" as="geometry" />
        </mxCell>
        <mxCell id="5cvoMpTRVd37yO0GErrh-61" value="User" style="text;html=1;align=center;verticalAlign=middle;resizable=0;points=[];autosize=1;strokeColor=none;fillColor=none;fontStyle=1" parent="1" vertex="1">
          <mxGeometry x="134" y="78" width="50" height="30" as="geometry" />
        </mxCell>
        <mxCell id="5cvoMpTRVd37yO0GErrh-83" value="" style="edgeStyle=orthogonalEdgeStyle;rounded=0;orthogonalLoop=1;jettySize=auto;html=1;startArrow=classicThin;startFill=1;endArrow=none;endFill=0;" parent="1" source="5cvoMpTRVd37yO0GErrh-71" target="5cvoMpTRVd37yO0GErrh-18" edge="1">
          <mxGeometry relative="1" as="geometry" />
        </mxCell>
        <mxCell id="5cvoMpTRVd37yO0GErrh-85" value="" style="sketch=0;outlineConnect=0;fontColor=#232F3E;gradientColor=none;fillColor=#232F3D;strokeColor=none;dashed=0;verticalLabelPosition=bottom;verticalAlign=top;align=center;html=1;fontSize=12;fontStyle=0;aspect=fixed;pointerEvents=1;shape=mxgraph.aws4.authenticated_user;" parent="1" vertex="1">
          <mxGeometry x="1020" width="78" height="78" as="geometry" />
        </mxCell>
        <mxCell id="5cvoMpTRVd37yO0GErrh-86" value="Dev - Bastion Host User" style="text;html=1;align=center;verticalAlign=middle;resizable=0;points=[];autosize=1;strokeColor=none;fillColor=none;fontStyle=1" parent="1" vertex="1">
          <mxGeometry x="970" y="80" width="160" height="30" as="geometry" />
        </mxCell>
        <mxCell id="5cvoMpTRVd37yO0GErrh-144" value="" style="edgeStyle=orthogonalEdgeStyle;html=1;endArrow=block;elbow=vertical;startArrow=none;endFill=1;strokeColor=#545B64;rounded=0;" parent="1" source="5cvoMpTRVd37yO0GErrh-85" target="5cvoMpTRVd37yO0GErrh-152" edge="1">
          <mxGeometry width="100" relative="1" as="geometry">
            <mxPoint x="1040" y="80" as="sourcePoint" />
            <mxPoint x="273" y="320" as="targetPoint" />
            <Array as="points">
              <mxPoint x="1060" y="360" />
              <mxPoint x="425" y="360" />
            </Array>
          </mxGeometry>
        </mxCell>
        <mxCell id="5cvoMpTRVd37yO0GErrh-87" value="" style="edgeStyle=orthogonalEdgeStyle;html=1;endArrow=block;elbow=vertical;startArrow=none;endFill=1;strokeColor=#545B64;rounded=0;" parent="1" source="5cvoMpTRVd37yO0GErrh-85" target="5cvoMpTRVd37yO0GErrh-153" edge="1">
          <mxGeometry width="100" relative="1" as="geometry">
            <mxPoint x="1060" y="80" as="sourcePoint" />
            <mxPoint x="734" y="410" as="targetPoint" />
            <Array as="points">
              <mxPoint x="1059" y="360" />
              <mxPoint x="734" y="360" />
            </Array>
          </mxGeometry>
        </mxCell>
        <mxCell id="5cvoMpTRVd37yO0GErrh-161" value="&lt;b&gt;Port: 22&lt;/b&gt;" style="text;html=1;align=center;verticalAlign=middle;resizable=0;points=[];autosize=1;strokeColor=none;fillColor=none;" parent="1" vertex="1">
          <mxGeometry x="1060" y="108" width="70" height="30" as="geometry" />
        </mxCell>
      </root>
    </mxGraphModel>
  </diagram>
</mxfile>
